
<global>
amp_veltrack=0
ampeg_release=0.50
</global>

<group>
group_label=Group_0-45
lpc_hicc1=42
lpc_locc1=0

<region>
hikey=a#3
hivel=127
lokey=a3
loop_end=257680
loop_mode=loop_continuous
loop_start=83763
loop_xfade=21074
lovel=1
lpc=Gl/xQQbHjMJOyllCY0yLwT7REED7DCtAU56SQB40BsHr1bpAwTJLwOJeI8B/p/Y/L/+RP28HoD4GmPi/4rbPP8sg5r7GO6c+rYEuwB05uEAjj4/ABP5oQCZ8kMAJmw9A
lpc_rms=-22.24
offset=1505
pitch_keycenter=a#3
sample=Cor_trill_semitone_PP_A#3.opus
</region>

<region>
hikey=a#4
hivel=127
lokey=a4
loop_end=274667
loop_mode=loop_continuous
loop_start=89285
loop_xfade=22463
lovel=1
lpc=U9YcQqrhqcIbrklCF8M7QcwSGMLdS9tBPljwQOiaUsGn5SVAUbK5wOCJvECogj+//LGRwDK5ekCB9oq/bY+UPnSFUsAsnrJABXYOP4YL5T8btG/Aip/BQPX8i8FqQj1B
lpc_rms=-21.83
offset=2305
pitch_keycenter=a#4
sample=Cor_trill_semitone_PP_A#4.opus
</region>

<region>
hikey=c4
hivel=127
lokey=b3
loop_end=271836
loop_mode=loop_continuous
loop_start=88365
loop_xfade=22231
lovel=1
lpc=MSYqQodm78KeZu1CAfMHwvglDsLvxUFC+AOawcZIckDVzEbB+8QDQYDPyj8EFf7A77P3QMph770R9CC/J/7QP/yyjMAvq8m+c7e8QIV1usBwKB8/YKNIQEiEAsDut+M+
lpc_rms=-23.73
offset=675
pitch_keycenter=c4
sample=Cor_trill_semitone_PP_C4.opus
</region>

<region>
hikey=c5
hivel=127
lokey=b4
loop_end=263434
loop_mode=loop_continuous
loop_start=85634
loop_xfade=21544
lovel=1
lpc=aVTgQTnkjcJbLnlCK6bnwF+CF8IjKylCeytkwaW3DMA7MQk/vLxPQEMj4cB3l1JAElVwQPKc6sBh9rJAajWEQBrF4sBLJaa/g8sgQd6DG8GwqMc+iMIIQQwSJMGZlp1A
lpc_rms=-27.84
offset=2624
pitch_keycenter=c5
sample=Cor_trill_semitone_PP_C5.opus
</region>

<region>
hivel=127
key=d#5
loop_end=260560
loop_mode=loop_continuous
loop_start=84699
loop_xfade=21309
lovel=1
lpc=yZkzQpOA0MJII8VCa+8MwmXJ7cFjRDBCAU0swbSuiMDKpGxAqN84P6Ym18AzZ6A/XqlyQHZOScDnOmw+gy9fQU9IYcF7qoBA4MowQKlSt8CAxZM/N+6qQN1CvMBcbKBA
lpc_rms=-25.98
offset=1782
sample=Cor_trill_semitone_PP_D#5.opus
</region>

<region>
hikey=d4
hivel=127
lokey=c#4
loop_end=270394
loop_mode=loop_continuous
loop_start=87896
loop_xfade=22113
lovel=1
lpc=lpUcQvkTxsLP7KdCjZS6wQ+xScFph7RBMUfkwHcoNkATFC7BaH4DQFqdY0BIThLAc+CXPuZkbT1hLcdAzefJwBEWWj0b++Y/Yj6iv8JiJr9qKbVAQ+PHwFb1lD8ic1Y/
lpc_rms=-23.12
offset=666
pitch_keycenter=d4
sample=Cor_trill_semitone_PP_D4.opus
</region>

<region>
hikey=d5
hivel=127
lokey=c#5
loop_end=271516
loop_mode=loop_continuous
loop_start=88261
loop_xfade=22205
lovel=1
lpc=4TUSQs48ncLBe31C4HqXwbkehcF9yMBBqI0bwfhY/0AORInATcBYP1IPq78K4CrANmidvyrWOUBhKcY/WfpRPzETwr93ec9A3djZwKPbDMAkrNdA0S/NwJ6b7D93RS9A
lpc_rms=-23.17
offset=1801
pitch_keycenter=D5
sample=Cor_trill_semitone_PP_D5.opus
</region>

<region>
hivel=127
key=e3
loop_end=260240
loop_mode=loop_continuous
loop_start=84595
loop_xfade=21283
lovel=1
lpc=H6k8Qk9/8cKPdN9CCuhLwt8JakF4twXBghyoQVX2isEQbjZB6SKOwb0lW0EMaIbAncqBwEnKl0AR5Xg+H8OvQNw+QsFZCStBSTUlwTeo+ECgkbq/ClPpP4UFoMCrfixA
lpc_rms=-23.26
offset=704
sample=Cor_trill_semitone_PP_E3.opus
</region>

<region>
hikey=e4
hivel=127
lokey=d#4
loop_end=271015
loop_mode=loop_continuous
loop_start=88098
loop_xfade=22164
lovel=1
lpc=wkwEQrZmq8IAuJZCg9eawewsacGnBaJB1wMFwQs2OUA4el/ANCpPwEvTV0DTgrm/tbYqv5cS6kBPhAPBdgqkQFf61b9Go8w/RKKpwM3dikBfvSo9G14HwPcjqT9mu1a9
lpc_rms=-22.86
offset=797
pitch_keycenter=e4
sample=Cor_trill_semitone_PP_E4.opus
</region>

<region>
hikey=f#3
hivel=127
lokey=f3
loop_end=276629
loop_mode=loop_continuous
loop_start=89923
loop_xfade=22623
lovel=1
lpc=8PVgQtAxHcMiZCdDyt+xwhMWrkEe4JjArisCQosgJcK7o7hBeYxUwcsBYkAIv7RASqiBwY7mmUHjeqXAOdlEQLouCMEPPQ9AfZMSPnGTpUA+UQ/BzDD3QApTBsAmzAy/
lpc_rms=-20.18
offset=3792
pitch_keycenter=f#3
sample=Cor_trill_semitone_PP_F#3.opus
</region>

<region>
hikey=f#4
hivel=127
lokey=f4
loop_end=277523
loop_mode=loop_continuous
loop_start=90213
loop_xfade=22696
lovel=1
lpc=08ioQjBdeMM8hY9D21U4w02CmkL6/5bBHrp3QWOau0AzrBLCfK/AQX+l68DNlBa+LlyowMbmV0HK3VnAhPa0PyCnocFIsApC4i72wZaKk0HZ9JvAf5ULQCF5+MBQmpJA
lpc_rms=-17.09
offset=3960
pitch_keycenter=f#4
sample=Cor_trill_semitone_PP_F#4.opus
</region>

<region>
hikey=f5
hivel=127
lokey=e5
loop_end=262549
loop_mode=loop_continuous
loop_start=85346
loop_xfade=21472
lovel=1
lpc=3uH3QTbdhMK763FC2LmSwdqzk8GmE6JB62ZSQAsPYMGaqRpBlskGQAjoW8DtdirAa8GtQFid2MAxbxtBdbn+v73X1sCMf/ZAhthwQPGUKsF3qn1AoCWZQB2UkcADMIFA
lpc_rms=-23.39
offset=1995
pitch_keycenter=f5
sample=Cor_trill_semitone_PP_F5.opus
</region>

<region>
hikey=g#3
hivel=127
lokey=g3
loop_end=276419
loop_mode=loop_continuous
loop_start=89855
loop_xfade=22606
lovel=1
lpc=6qYCQrg9osKb6Y1C8+y+wcX4JMDUlTO9Ll0yQcMhSMDwTLjAkB3OQLX0H8EqoSFB9KYlwSlet0D3/olAv1mJwJtxRT9iT6s+RiaqvtQlJL8RNivAlKeXQK8VA8Ciauw+
lpc_rms=-23.84
offset=5262
pitch_keycenter=g#3
sample=Cor_trill_semitone_PP_G#3.opus
</region>

<region>
hikey=g#4
hivel=127
lokey=g4
loop_end=267950
loop_mode=loop_continuous
loop_start=87101
loop_xfade=21914
lovel=1
lpc=fGRtQkF+AsOLptJCOKE+whiIKUHBmvHAL+BjQXZV5ECRdIPBgwKbQSmUDcE3w/q+m0qcwWj2kEGG1lVAf973wG+Qm77qzQVB1/Q+vzylLsF5FtpAZsOvQAHNc8HNfx9B
lpc_rms=-19.56
offset=5346
pitch_keycenter=g#4
sample=Cor_trill_semitone_PP_G#4.opus
</region>

<region>
hikey=C#6
hivel=127
lokey=f#5
loop_end=270518
loop_mode=loop_continuous
loop_start=87936
loop_xfade=22124
lovel=1
lpc=1luQQk8BMsMCPjZDVJKdwmMnnsETpjlCZv9AwSFkxcDPvi/BW8HwQecw5MEZxjdB+kUPvcHJW0Ck5r1AOKoUwefx8L/zJP1ApjGkvyhHb8DdbBdAb0LVQLRSCcAshT7A
lpc_rms=-18.37
offset=2400
pitch_keycenter=G5
sample=Cor_trill_semitone_PP_G5.opus
</region>
</group>

<group>
group_label=Group_46-90
lpc_hicc1=84
lpc_locc1=43

<region>
hikey=a#3
hivel=127
lokey=a3
loop_end=273119
loop_mode=loop_continuous
loop_start=88782
loop_xfade=22336
lovel=1
lpc=nNcdQo0cy8IRdLpC/eUlwo4DhEEtKxbBUx1wQfEFmMGocFFBIkvgwGnqhsDb9xxBxc4SwH4kGD/EjDbAm2RQv/TR/j9UbYLA/Km0QPlVg79gz4K/r4ajQMAcDsFycIJA
lpc_rms=-17.90
offset=4997
pitch_keycenter=a#3
sample=Cor_trill_semitone_MF_A#3.opus
</region>

<region>
hikey=a#4
hivel=127
lokey=a4
loop_end=268881
loop_mode=loop_continuous
loop_start=87404
loop_xfade=21990
lovel=1
lpc=esMWQvKnwsKgMaVCGttWwU1JgMHVswhAGsCJQY55n8EhHBpBNM+FPq47tMB49PRAw84vwFaV78ARrw5BTQRCvw8XrsD2LZdAku2ivwWPZD8QUxfA08JcQVFyt8E1MzNB
lpc_rms=-16.42
offset=2987
pitch_keycenter=a#4
sample=Cor_trill_semitone_MF_A#4.opus
</region>

<region>
hikey=c4
hivel=127
lokey=b3
loop_end=270273
loop_mode=loop_continuous
loop_start=87857
loop_xfade=22103
lovel=1
lpc=uyMXQsqm1MJ0vNlCbNQlwvwHCsGGWXxBoxnXvztFVsCGBlnARbX5PhYeYEDCAFw9VmxbPvFjzb+G6G1ArmbUwIK0KkBr5OK/ben7QItoz8C/pDo+8doyQEMaYsAKlOI/
lpc_rms=-16.74
offset=1128
pitch_keycenter=c4
sample=Cor_trill_semitone_MF_C4.opus
</region>

<region>
hikey=c5
hivel=127
lokey=b4
loop_end=271216
loop_mode=loop_continuous
loop_start=88163
loop_xfade=22181
lovel=1
lpc=te8OQmUFwMIr4LFC5bIzwa52RMIxf0JCkPwWwZEvC8FXhELAjtgOQbdbssBpmuA/apErQBtkIcGvn3tBTeNtwOwjQcE9afxAqqXzQAKbV8EXCm5AThlTQYrJlMEj0wNB
lpc_rms=-23.51
offset=2349
pitch_keycenter=c5
sample=Cor_trill_semitone_MF_C5.opus
</region>

<region>
hivel=127
key=d#5
loop_end=270875
loop_mode=loop_continuous
loop_start=88052
loop_xfade=22153
lovel=1
lpc=/A0kQnUd1cJySt5CulwownT1+cG7vD1Cg9S2wN0y0MHABp9BwY24QL5d58HjRMJB6lIMQXK/+MF4YLtBx766PyzNV8E6jhxALUWUQd5jtMGNGMdAkCM4QXo2gMF6uw5B
lpc_rms=-20.78
offset=738
sample=Cor_trill_semitone_MF_D#5.opus
</region>

<region>
hikey=d4
hivel=127
lokey=c#4
loop_end=277178
loop_mode=loop_continuous
loop_start=90101
loop_xfade=22668
lovel=1
lpc=X4sLQoTPsMLC0o5CQR05waSIT8Hk7EZBmf65v0+/cMDmzwDASmJ3wMWiIUH9FYrA/M1UwM8SkkByMKdATxgAwRkSpD6lDR3AxezWP7z9l0AgQfg/ZYYBwVfgb0D0TJK+
lpc_rms=-17.14
offset=5642
pitch_keycenter=d4
sample=Cor_trill_semitone_MF_D4.opus
</region>

<region>
hikey=d5
hivel=127
lokey=c#5
loop_end=274538
loop_mode=loop_continuous
loop_start=89243
loop_xfade=22452
lovel=1
lpc=CmorQk+q08IDqcdCdDAWwsX5i8EA+yVC3TnqwRUxD0FjP1NAHKLAwObllj/94xO/B6VMQFY3GcCMxZxAolQ5wKx/QMDxLrg/WdvQQMF9OMG2xEJBmmXVwKtv4b+i6H9A
lpc_rms=-17.13
offset=4843
pitch_keycenter=D5
sample=Cor_trill_semitone_MF_D5.opus
</region>

<region>
hivel=127
key=e3
loop_end=273247
loop_mode=loop_continuous
loop_start=88823
loop_xfade=22347
lovel=1
lpc=yTI3QtaE68ILhthCvLlKwpIUs0GUoHnBdfKyQTiCpsGcsG5BKcuYwb5ZjkERnBTBgovOwO1HV0GCQAjASUwsQPIfNcFOmRdBeS/mwNvmeUCWHek9Oq4MvhZvnz5nBZ2+
lpc_rms=-21.48
offset=993
sample=Cor_trill_semitone_MF_E3.opus
</region>

<region>
hikey=e4
hivel=127
lokey=d#4
loop_end=270976
loop_mode=loop_continuous
loop_start=88085
loop_xfade=22161
lovel=1
lpc=Q+wGQsgFvsLZ5LlC/3/bwcB/JcE9jSRBm/a2wASZhj7RHK9AW970wFLz1z2vgz5BfIntwKmGd8BozvK9UvkBQRvSH8EZ8iFBMajhwNvoCEA8Ku4+B0/nP8DekcCx2hhA
lpc_rms=-18.85
offset=119
pitch_keycenter=e4
sample=Cor_trill_semitone_MF_E4.opus
</region>

<region>
hikey=f#3
hivel=127
lokey=f3
loop_end=275838
loop_mode=loop_continuous
loop_start=89666
loop_xfade=22559
lovel=1
lpc=WPYtQq5H7sIvIPxCEiCOwkdJtkFubVnAAuWNQSLN1MHv0YNBPJo0wb4W2UAEuG0/sq+YwHDnTkBPHq+/C7KlQMhTKsGcFBJByw16wAwakUAS4qfA94ckQF8BDcDIYcM/
lpc_rms=-21.59
offset=3846
pitch_keycenter=f#3
sample=Cor_trill_semitone_MF_F#3.opus
</region>

<region>
hikey=f#4
hivel=127
lokey=f4
loop_end=275245
loop_mode=loop_continuous
loop_start=89473
loop_xfade=22510
lovel=1
lpc=0aq4QhWPgsMVrIxDdB0hwzQMa0I6xzfBt+PaQfsQ2MG7yULB6UNYQaFmz0AVpGXAbmKDwcSLhkEGsUpBwx3awZ3aKkGKERJBxKI0wfDcOcDZ001Bq0sPvzt7ScETw9dA
lpc_rms=-12.91
offset=6428
pitch_keycenter=f#4
sample=Cor_trill_semitone_MF_F#4.opus
</region>

<region>
hikey=f5
hivel=127
lokey=e5
loop_end=275540
loop_mode=loop_continuous
loop_start=89569
loop_xfade=22534
lovel=1
lpc=lnDeQShjccKaiEFCTyWAwGsprMHsSIxBUQlbwCyYib9LHRy+toVfQHK/Xr5ZcsfA+CjtQF/qUcBiUNA/AOc0QAYDocCHqplA0VfUv2i0Gr9yHU8/V0u5PKw0RD8zbrk/
lpc_rms=-20.32
offset=555
pitch_keycenter=f5
sample=Cor_trill_semitone_MF_F5.opus
</region>

<region>
hikey=g#3
hivel=127
lokey=g3
loop_end=272934
loop_mode=loop_continuous
loop_start=88722
loop_xfade=22321
lovel=1
lpc=iuMVQsUAyMLVtcdCe7owwv1WFb+fOvVA76IrQUBdKcGtfOfAykdzQcMOZsF+h2VBf+qEwdDtH0G8g1hAeQrIwKngH0BdnijALVeRQL8bisBUMBdArXSnv2FMHj+Jy3Q+
lpc_rms=-21.33
offset=5047
pitch_keycenter=g#3
sample=Cor_trill_semitone_MF_G#3.opus
</region>

<region>
hikey=g#4
hivel=127
lokey=g4
loop_end=267120
loop_mode=loop_continuous
loop_start=86832
loop_xfade=21846
lovel=1
lpc=5ZRaQs5FFMNXkhFD1ciCwtDTr0ERGL/BL84HQlLPm8H+ZcXANHy4QVeA/cGq4NtBIqa3wfWLfEH6l1w+a/YAwea3kEBa2hy+u10uQB1SAcEHAR9BaBMawKMIA8FNcb5A
lpc_rms=-15.91
offset=5197
pitch_keycenter=g#4
sample=Cor_trill_semitone_MF_G#4.opus
</region>

<region>
hikey=C#6
hivel=127
lokey=f#5
loop_end=274755
loop_mode=loop_continuous
loop_start=89313
loop_xfade=22470
lovel=1
lpc=TYhzQsaQFsPKASFDgyOkwuBCzr/TK+FB2FW2vi/PwsCQ23XBUt23QSj7HsFi1jzAb2BEwJwxnkGVNJzAvIkyweBfH0CwqhZB1xH5wFrnG8CC8U5BROGov0dCxsALb+Y/
lpc_rms=-15.98
offset=1272
pitch_keycenter=G5
sample=Cor_trill_semitone_MF_G5.opus
</region>
</group>

<group>
group_label=Group_91-127
lpc_hicc1=127
lpc_locc1=85

<region>
hikey=a#3
hivel=127
lokey=a3
loop_end=271403
loop_mode=loop_continuous
loop_start=88224
loop_xfade=22196
lovel=1
lpc=8DPVQZ45gcK32kZCav/EwJr2DsFRYo1AgW+SQGOhGsF6jLxA3OG/vyPYqb+SwplALJOLwA0qzD40qI1AFRrVwBwvfkDQeba/QyckP9PO5778wFY+r628P1oVob+7EE49
lpc_rms=-18.70
offset=5322
pitch_keycenter=a#3
sample=Cor_trill_semitone_FF_A#3.opus
</region>

<region>
hikey=a#4
hivel=127
lokey=a4
loop_end=278372
loop_mode=loop_continuous
loop_start=90489
loop_xfade=22766
lovel=1
lpc=yJsLQr3gqMI5tYpCnLVcwfk1U8Gt0N1AVI4TQYJeMcH2g09AqqubPytR3sDpYxRBT2xIwKRR5r7pJVpA/3mhwBQmfEDcm6vAqxmzQKWNQsANxMG//SoKQczmMsHsLqlA
lpc_rms=-16.21
offset=5746
pitch_keycenter=a#4
sample=Cor_trill_semitone_FF_A#4.opus
</region>

<region>
hikey=c4
hivel=127
lokey=b3
loop_end=266499
loop_mode=loop_continuous
loop_start=86630
loop_xfade=21795
lovel=1
lpc=QnILQsE/tcIQ8pxCR5B/wXtEaMG0+TdBZxvQvWqOMMCyKFW+QsaBwEpKj0DKcR1AxnwowDT1BMDjTHlAUT41wFSPw7++1stANZRXwGJUQMC5jaVA87KawN0BLEBMPba+
lpc_rms=-15.22
offset=268
pitch_keycenter=c4
sample=Cor_trill_semitone_FF_C4.opus
</region>

<region>
hikey=c5
hivel=127
lokey=b4
loop_end=274936
loop_mode=loop_continuous
loop_start=89372
loop_xfade=22485
lovel=1
lpc=24fcQe5rlMLAXqFCrLcxwnIYdkBFtX1BNAcCwXDX5L8OuxxAcVIoQFuEBMG87xxBJZdAwaVoFUFK4Na/Hhgkv7HUmj+78gDA8c+NQIgcp8CeHEpANP/0vOQzjcCm+m5A
lpc_rms=-17.53
offset=1261
pitch_keycenter=c5
sample=Cor_trill_semitone_FF_C5.opus
</region>

<region>
hivel=127
key=d#5
loop_end=280953
loop_mode=loop_continuous
loop_start=91328
loop_xfade=22977
lovel=1
lpc=r5JDQl3j98KdevZCRQ0nwltE5cGwzhZC3gjswCdiB8GFBE2/LF2VQas0tsEaY5VBGR6PwcjlF0GeK7VAR+n/wIZYpUBYHoLAf0MyQSZ8VsFw+ZFAL53CQAnZScFECBtB
lpc_rms=-16.31
offset=8001
sample=Cor_trill_semitone_FF_D#5.opus
</region>

<region>
hikey=d4
hivel=127
lokey=c#4
loop_end=269425
loop_mode=loop_continuous
loop_start=87581
loop_xfade=22034
lovel=1
lpc=S/22QYMTYMLlfjdCFzsiwQXXp8CsiJ1AZH76v4K4ej/5udk+XNF0wEzjQkA9Wzw/54MRwCJG3D8R9Jk/L4d+v4ZFNsAH6pc/CHJmP7X90D7jWSy/Qob3PkQeyT4uXza/
lpc_rms=-18.01
offset=327
pitch_keycenter=d4
sample=Cor_trill_semitone_FF_D4.opus
</region>

<region>
hikey=d5
hivel=127
lokey=c#5
loop_end=266936
loop_mode=loop_continuous
loop_start=86772
loop_xfade=21831
lovel=1
lpc=Jjv8QR/2msKHTpJCNMDlweGdHcAi+NRAl11IQKVt9MAhTfxAUq9wwBrT6b85PwlAKEHZPgSPkcC4NfNANEHYv8lkDMCEDx8/SBzcvsy4kUCOjfLArRwFQXWqDsEeHLRA
lpc_rms=-16.88
offset=639
pitch_keycenter=D5
sample=Cor_trill_semitone_FF_D5.opus
</region>

<region>
hivel=127
key=e3
loop_end=273241
loop_mode=loop_continuous
loop_start=88821
loop_xfade=22346
lovel=1
lpc=OUsuQqQY7sJ4y/ZCPN+BwmkE3EH8w5jBurZjQdwuLsHcgpdBRFe/wbyYhkGUnd/As1SEP81HlL/MrHo+acdRQFovp8Af1+lA/fKewPiz7j1p8WVAO3jnwCCam0DJrLS+
lpc_rms=-15.05
offset=2707
sample=Cor_trill_semitone_FF_E3.opus
</region>

<region>
hikey=e4
hivel=127
lokey=d#4
loop_end=273518
loop_mode=loop_continuous
loop_start=88911
loop_xfade=22369
lovel=1
lpc=63LXQbWGlsIFu51CjXITwjYfu0D52VFAOTw0wAHGBD9/kK4/HNerwLE2xkDX4zjAhULnPsiivL2EEe4/+VlCP73dr8BwAmpAIEgRv3Czx70nN84/VX8uwKT/EEBaHlG/
lpc_rms=-16.81
offset=739
pitch_keycenter=e4
sample=Cor_trill_semitone_FF_E4.opus
</region>

<region>
hikey=f#3
hivel=127
lokey=f3
loop_end=274243
loop_mode=loop_continuous
loop_start=89147
loop_xfade=22428
lovel=1
lpc=jcMWQvouv8J8p7BCmCElwk0VUEE4K70/GgQgwGLXgL8OvohA65LnwLd4MkByUnk/9VQYQKPZ2MC/7w1BstHEwC87gT+bnZK/vyyiQPeiqcApPY8/Tk2eP9VWUb3a5bS+
lpc_rms=-15.89
offset=4370
pitch_keycenter=f#3
sample=Cor_trill_semitone_FF_F#3.opus
</region>

<region>
hikey=f#4
hivel=127
lokey=f4
loop_end=272911
loop_mode=loop_continuous
loop_start=88714
loop_xfade=22319
lovel=1
lpc=BMEXQqbY0cIZ9OZCOquNwkucyUEutWhAAGy9wCLZvL8r4ndASlOJwPUeHUC7boo//bFzwNk8yr/eTi1BXIj7wGje67/4XdFAOULnwE3tnEDt0RDAYVrGP4rQpL75kp6+
lpc_rms=-14.98
offset=6501
pitch_keycenter=f#4
sample=Cor_trill_semitone_FF_F#4.opus
</region>

<region>
hikey=f5
hivel=127
lokey=e5
loop_end=272596
loop_mode=loop_continuous
loop_start=88612
loop_xfade=22293
lovel=1
lpc=osimQU8WRMI3uktC3yKwwegCoMDsuQ5BWdXjP5IX2MCb0ppARJK1Pi7WnL9KuqW/DbHRQEbnBMGp1bFAMlzmP25VvMAXN8RAXkJrwGHLDUDu1Oq/Pd1wQDGAaMC7AkJA
lpc_rms=-19.41
offset=157
pitch_keycenter=f5
sample=Cor_trill_semitone_FF_F5.opus
</region>

<region>
hikey=g#3
hivel=127
lokey=g3
loop_end=275150
loop_mode=loop_continuous
loop_start=89442
loop_xfade=22502
lovel=1
lpc=c1cLQkjhrsKz3ZlCQCnpwQEXikBalOI/WaepQChEysCJLlzAWlsMQesrJsFpPHNA+ZmAQEaib8ARML9AdlUzwOpjT8CM5C+/bQXDP6ywsz8Apvq/8oVpQJxYNMDK8g8/
lpc_rms=-18.40
offset=3932
pitch_keycenter=g#3
sample=Cor_trill_semitone_FF_G#3.opus
</region>

<region>
hikey=g#4
hivel=127
lokey=g4
loop_end=274213
loop_mode=loop_continuous
loop_start=89137
loop_xfade=22426
lovel=1
lpc=ATAaQtCvvMIjmJ5C+YbuwXLHMkFCucLAaMVZQL0DKz/pJpvA+8XVQK9jDcEiqKJA7NWuv1KJLkCbk9A/bl1RwMHdzL5jyAvAJWI+QE7Knr+U7W5Awi+DvR5W5MArFJZA
lpc_rms=-15.27
offset=5380
pitch_keycenter=g#4
sample=Cor_trill_semitone_FF_G#4.opus
</region>

<region>
hikey=C#6
hivel=127
lokey=f#5
loop_end=275632
loop_mode=loop_continuous
loop_start=89599
loop_xfade=22542
lovel=1
lpc=3iZhQrTjEsMFzipDyPPPwu2ekEGQkqdBnyiTwA+c/MDzeQ7AP8ZnQcwCSMFFZus/AcihQBV87z9RogrAIcYLwF8ookAGODTAQoBfwJwynUCCNwZB34hKwRTD8kCd8/+/
lpc_rms=-11.17
offset=5852
pitch_keycenter=G5
sample=Cor_trill_semitone_FF_G5.opus
</region>
</group>